<?xml version="1.0" standalone="no"?>
<!DOCTYPE svg PUBLIC "-//W3C//DTD SVG 20010904//EN"
 "http://www.w3.org/TR/2001/REC-SVG-20010904/DTD/svg10.dtd">
<svg version="1.0" xmlns="http://www.w3.org/2000/svg"
 width="16.000000pt" height="16.000000pt" viewBox="0 0 16.000000 16.000000"
 preserveAspectRatio="xMidYMid meet">
<metadata>
Created by potrace 1.11, written by Peter Selinger 2001-2013
</metadata>
<g transform="translate(0.000000,16.000000) scale(0.001533,-0.001533)"
fill="#000000" stroke="none">
<path d="M10277 8654 c-1 -1 -36 -5 -77 -8 -41 -4 -84 -9 -95 -11 -11 -2 -31
-4 -45 -4 -14 -1 -43 -17 -64 -37 -48 -43 -332 -305 -425 -391 -26 -24 -49
-43 -53 -43 -5 0 -8 -5 -8 -11 0 -10 48 -8 150 6 19 2 62 7 95 10 68 7 223 23
275 30 19 2 64 7 100 11 36 4 76 8 90 9 14 2 30 3 36 4 6 1 18 47 28 104 16
99 19 119 30 182 3 17 8 50 12 75 3 25 8 53 10 63 5 14 0 17 -26 15 -17 -1
-32 -3 -33 -4z"/>
<path d="M9938 8614 c-2 -1 -34 -5 -71 -9 -37 -3 -76 -8 -86 -10 -10 -2 -44
-6 -77 -9 -32 -4 -149 -18 -259 -31 -110 -14 -220 -27 -245 -31 -25 -3 -58 -7
-75 -9 -16 -3 -50 -7 -74 -9 -54 -6 -58 -10 -65 -66 -3 -25 -8 -55 -10 -66 -2
-12 -7 -39 -10 -60 -4 -22 -11 -66 -17 -99 -14 -74 -16 -90 -23 -137 -3 -21
-10 -57 -15 -80 -6 -24 -12 -63 -15 -88 -6 -48 -8 -59 -31 -184 -9 -44 -13
-81 -11 -83 2 -3 152 125 333 284 182 158 358 313 393 343 35 30 82 72 104 92
23 20 96 83 163 140 67 57 122 106 122 109 1 5 -26 8 -31 3z"/>
<path d="M7898 8460 c-68 -4 -81 -8 -110 -36 -18 -17 -58 -53 -88 -81 -30 -28
-65 -60 -77 -71 -13 -10 -66 -59 -120 -108 -53 -49 -107 -98 -119 -109 -41
-38 -99 -90 -219 -200 -66 -60 -142 -130 -170 -155 -27 -25 -76 -70 -109 -100
-33 -30 -65 -59 -72 -65 -72 -64 -106 -100 -114 -119 -32 -85 -52 -336 -35
-444 10 -61 35 -142 73 -230 l35 -82 46 37 c25 21 53 45 62 53 8 8 29 26 45
40 107 91 263 227 282 247 20 20 21 26 12 69 -16 72 -14 240 5 308 42 158 111
274 218 369 103 91 135 113 197 136 167 61 325 43 416 -48 24 -24 44 -48 44
-53 0 -5 30 17 67 49 37 32 81 69 97 83 16 14 34 30 40 35 6 6 43 37 81 70 39
33 90 79 115 102 l45 42 -55 57 c-152 157 -341 222 -592 204z"/>
<path d="M7582 8390 c-132 -50 -219 -98 -330 -179 -120 -88 -168 -134 -284
-268 -43 -50 -103 -142 -146 -223 -68 -128 -65 -132 34 -44 49 43 116 102 148
129 112 96 147 126 201 174 22 20 69 61 105 91 35 30 71 62 80 70 8 8 60 53
115 100 55 47 120 104 145 127 25 24 48 43 53 43 4 0 7 5 7 10 0 16 -19 12
-128 -30z"/>
<path d="M6488 8215 c-2 -2 -30 -6 -63 -9 -87 -9 -147 -16 -175 -21 -30 -5
-136 -17 -170 -19 -25 -2 -29 -11 -44 -106 -3 -19 -14 -91 -25 -160 -12 -69
-23 -143 -27 -165 -3 -22 -8 -43 -11 -47 -17 -30 38 16 306 251 35 31 73 64
85 74 12 10 48 42 80 70 33 29 65 57 73 62 7 6 14 24 16 40 2 25 -2 30 -20 31
-12 1 -24 0 -25 -1z"/>
<path d="M8474 8102 c-39 -37 -108 -101 -154 -142 -200 -179 -202 -182 -191
-212 l10 -28 48 19 c27 11 102 46 168 79 66 32 159 78 206 100 l87 42 -14 40
c-23 68 -72 170 -81 170 -4 -1 -40 -31 -79 -68z"/>
<path d="M4936 8093 c-3 -10 -10 -45 -16 -78 -5 -33 -12 -71 -15 -85 -22 -111
-46 -262 -43 -269 1 -5 72 49 156 122 l153 131 -33 30 c-56 52 -172 152 -185
159 -7 4 -14 0 -17 -10z"/>
<path d="M6330 7938 c-96 -88 -215 -197 -264 -241 -48 -45 -92 -85 -98 -88 -5
-3 -21 -80 -35 -170 -14 -90 -30 -168 -35 -174 -5 -6 -29 12 -62 45 -98 101
-87 98 -142 46 -27 -24 -58 -53 -70 -63 -46 -40 -222 -202 -284 -261 l-65 -62
116 -113 c63 -61 143 -138 177 -170 l61 -58 183 158 c484 416 578 499 579 517
0 6 2 18 4 26 3 17 44 268 51 315 3 17 10 56 15 87 6 32 12 68 14 80 10 67 19
125 21 138 1 8 7 42 13 74 13 70 13 76 4 75 -5 0 -87 -72 -183 -161z"/>
<path d="M9359 8007 c-25 -23 -83 -76 -129 -117 -47 -41 -103 -92 -125 -112
-22 -21 -90 -82 -152 -135 -109 -96 -120 -109 -128 -155 -2 -13 -20 -113 -39
-223 -20 -110 -38 -217 -42 -239 -3 -21 -8 -48 -10 -60 -5 -24 -21 -123 -29
-181 -4 -22 -8 -47 -11 -57 -6 -20 -23 -117 -31 -177 -5 -39 -3 -43 13 -38 11
3 51 8 89 12 39 3 84 8 101 11 17 3 47 6 67 8 30 3 79 41 314 242 333 286 335
288 308 280 -11 -3 -45 -8 -75 -11 -30 -3 -62 -7 -70 -10 -13 -3 -68 -10 -145
-18 -15 -2 -20 4 -19 23 1 31 11 108 23 180 6 30 12 70 15 88 2 19 6 36 8 38
2 2 60 10 128 18 69 8 148 18 175 21 28 3 70 8 95 10 25 3 61 7 80 10 19 3 60
8 91 10 31 3 64 7 75 9 10 2 54 7 97 11 45 4 77 12 78 19 0 6 2 18 4 26 3 13
23 118 39 206 3 17 13 66 21 110 8 43 15 82 15 85 0 7 -42 5 -110 -5 -19 -3
-60 -8 -90 -11 -30 -3 -89 -10 -130 -15 -41 -5 -97 -12 -125 -15 -27 -3 -63
-8 -80 -10 -88 -11 -196 -24 -241 -29 l-52 -6 9 40 c5 22 12 57 15 78 3 20 10
57 15 81 5 24 8 45 7 47 -2 1 -24 -16 -49 -39z"/>
<path d="M3575 7818 c-66 -105 -131 -209 -144 -232 l-25 -41 30 25 c16 14 31
27 34 30 3 3 69 61 147 128 l142 122 -26 73 c-14 39 -28 75 -32 78 -3 4 -60
-79 -126 -183z"/>
<path d="M5169 7827 c-25 -23 -92 -85 -149 -137 -214 -195 -190 -159 -215
-320 -3 -19 -14 -84 -25 -145 -10 -60 -22 -130 -25 -155 -4 -24 -8 -47 -10
-50 -1 -3 -6 -27 -9 -55 -4 -27 -9 -57 -11 -65 -2 -8 -6 -28 -9 -45 -3 -16
-12 -70 -20 -120 -9 -49 -18 -108 -21 -130 -3 -22 -8 -46 -11 -54 -4 -12 -2
-12 13 0 10 8 20 16 23 19 3 3 55 48 115 100 61 52 124 107 140 121 17 15 89
77 160 139 72 62 157 136 190 165 197 172 257 223 314 274 35 31 69 59 75 63
6 4 8 8 6 10 -3 2 -32 28 -65 58 -33 30 -103 93 -155 140 -52 47 -120 108
-150 136 -88 80 -103 94 -109 94 -3 0 -26 -19 -52 -43z"/>
<path d="M3736 7777 c-14 -13 -60 -55 -103 -93 -42 -38 -86 -78 -97 -89 -12
-11 -62 -56 -111 -100 -120 -108 -117 -104 -149 -155 -46 -71 -397 -641 -419
-680 -10 -19 -27 -46 -37 -60 -12 -18 -445 -734 -498 -824 -2 -4 17 -6 44 -3
27 3 76 9 109 13 33 3 69 14 81 23 17 13 116 98 158 136 6 6 43 37 81 70 39
33 72 62 75 65 3 3 55 48 115 100 61 52 115 99 121 105 6 5 37 33 70 61 32 28
99 86 148 129 l89 77 -79 -7 c-44 -4 -82 -9 -86 -12 -5 -2 -8 -1 -8 3 0 15
255 452 261 446 3 -4 23 -67 44 -139 21 -73 41 -133 44 -133 7 0 239 199 370
317 20 18 39 33 44 33 4 0 7 8 7 17 0 25 -234 723 -242 723 -4 0 -18 -11 -32
-23z"/>
<path d="M1818 7664 c-2 -1 -41 -5 -87 -8 -46 -4 -87 -8 -90 -10 -3 -2 -41 -7
-83 -11 -118 -10 -130 -13 -172 -53 -22 -20 -45 -41 -51 -47 -7 -5 -51 -46
-100 -90 -48 -44 -97 -89 -109 -100 -13 -11 -63 -57 -112 -101 -49 -45 -108
-99 -132 -120 -45 -41 -52 -60 -76 -219 -4 -22 -11 -66 -17 -97 -5 -32 -12
-68 -14 -80 -2 -13 -9 -52 -15 -88 -5 -36 -12 -76 -15 -90 -12 -70 -16 -92
-30 -175 -8 -49 -17 -101 -19 -115 -3 -14 -7 -41 -10 -60 -3 -19 -8 -48 -11
-65 -20 -108 -26 -147 -23 -150 2 -2 53 40 114 93 60 54 139 122 174 152 35
30 71 62 80 70 8 8 57 50 108 94 97 83 102 92 117 201 9 64 11 74 29 175 8 47
17 101 20 120 3 19 7 44 10 55 2 11 11 70 21 130 10 61 21 116 25 124 11 20
22 21 205 27 l160 6 55 -34 c36 -22 67 -51 89 -85 l34 -52 61 51 c54 45 83 70
201 173 17 14 65 56 108 92 42 36 77 71 77 77 -1 17 -52 70 -102 104 -85 59
-219 100 -342 105 -42 2 -77 3 -78 1z"/>
<path d="M1299 7606 c-2 -2 -35 -7 -74 -11 -38 -3 -83 -8 -100 -10 -16 -3 -68
-9 -115 -16 -47 -6 -87 -15 -91 -20 -8 -13 -63 -348 -58 -353 2 -3 31 20 64
50 33 29 137 120 232 201 94 81 172 151 172 156 1 7 -22 10 -30 3z"/>
<path d="M2333 7412 c-42 -36 -197 -178 -341 -310 -90 -83 -92 -86 -86 -121 4
-19 7 -72 7 -116 -1 -75 -3 -95 -18 -185 -11 -64 -34 -144 -59 -208 -21 -52
-22 -61 -8 -50 19 15 179 152 353 303 63 55 139 120 168 145 121 103 109 80
106 206 -2 62 -6 121 -9 132 -4 11 -9 30 -11 43 -7 37 -58 159 -70 169 -8 7
-18 4 -32 -8z"/>
<path d="M6335 7184 c-22 -20 -78 -72 -125 -115 -47 -43 -97 -87 -110 -99 -14
-12 -50 -45 -80 -73 -64 -60 -250 -230 -297 -272 -18 -15 -33 -33 -33 -39 0
-13 216 -206 231 -206 8 0 50 35 125 105 11 11 59 54 104 95 46 41 96 86 111
100 26 24 39 71 55 195 2 17 11 66 19 110 9 44 18 98 21 119 2 22 9 57 13 78
5 21 8 38 7 38 0 0 -19 -16 -41 -36z"/>
<path d="M8013 7083 c-65 -59 -131 -119 -146 -133 -16 -14 -46 -41 -66 -60
-21 -19 -77 -71 -126 -115 -49 -44 -100 -91 -115 -105 -15 -14 -49 -45 -76
-69 -136 -123 -234 -216 -234 -223 0 -9 269 -3 315 7 250 54 458 164 646 342
135 129 299 352 285 388 -2 7 -22 15 -43 18 -21 3 -49 8 -63 11 -14 3 -68 12
-120 21 -52 8 -105 18 -117 20 -18 4 -47 -17 -140 -102z"/>
<path d="M10029 7126 c-2 -2 -35 -7 -74 -10 -38 -4 -79 -8 -90 -10 -11 -2 -55
-7 -99 -11 -79 -8 -89 -13 -162 -80 -9 -8 -70 -64 -198 -180 -58 -52 -206
-187 -246 -224 l-45 -42 70 6 c39 3 81 8 95 10 14 2 48 6 75 9 97 11 230 27
265 31 19 3 55 7 80 10 25 3 61 7 80 10 41 5 104 12 179 20 30 3 56 7 57 8 3
3 60 325 69 392 3 22 8 46 10 53 3 8 -7 12 -29 12 -18 0 -35 -2 -37 -4z"/>
<path d="M3978 7008 c-19 -18 -72 -67 -118 -108 -46 -41 -95 -86 -110 -100
-15 -14 -51 -48 -81 -75 -69 -63 -69 -64 -59 -108 9 -40 13 -38 -89 -51 -20
-3 -48 -18 -69 -38 -20 -18 -45 -42 -57 -53 -12 -11 -59 -54 -105 -95 -45 -41
-90 -82 -99 -90 -9 -9 -61 -56 -116 -105 -55 -50 -104 -95 -110 -101 -5 -6
-74 -68 -152 -139 -79 -70 -143 -130 -143 -132 0 -3 19 -2 43 1 23 4 66 9 96
13 61 7 56 0 152 186 34 64 64 117 68 118 3 0 13 2 21 3 8 2 47 6 85 10 75 7
132 14 180 20 17 3 57 7 90 11 33 3 69 8 80 10 11 2 52 7 90 10 39 3 79 9 90
12 15 4 204 160 235 193 3 3 36 32 75 65 38 33 85 74 105 92 19 17 46 40 59
50 l24 20 -68 206 c-37 114 -70 207 -74 207 -4 0 -23 -15 -43 -32z"/>
<path d="M7205 6943 c-27 -25 -93 -84 -145 -132 -52 -47 -126 -116 -165 -153
l-70 -66 45 -42 c58 -54 200 -135 266 -152 8 -2 218 169 290 237 6 5 39 35 74
65 35 30 68 60 74 65 6 6 45 39 86 74 41 36 79 68 85 73 5 5 -9 2 -32 -6 -58
-20 -115 -28 -202 -28 -82 1 -151 27 -208 82 -18 16 -36 30 -40 30 -4 0 -30
-21 -58 -47z"/>
<path d="M2405 6884 c-67 -60 -196 -178 -225 -204 -15 -14 -64 -59 -110 -100
-46 -41 -88 -80 -94 -85 -6 -6 -63 -58 -128 -116 -64 -58 -129 -120 -144 -138
-16 -19 -51 -52 -79 -73 -27 -22 -93 -79 -145 -127 -52 -48 -124 -114 -160
-146 -129 -117 -155 -141 -224 -208 -39 -37 -64 -65 -56 -63 14 5 64 11 175
22 28 3 95 11 149 19 101 15 124 27 207 105 27 26 92 83 164 145 39 32 77 66
86 75 9 8 43 38 75 65 100 86 387 335 419 365 49 45 109 251 131 453 3 26 4
47 2 47 -2 0 -21 -17 -43 -36z"/>
<path d="M5168 6878 c-19 -18 -57 -53 -84 -77 -69 -62 -236 -215 -308 -282
-34 -31 -78 -72 -98 -90 -35 -32 -37 -39 -53 -144 -9 -60 -21 -132 -26 -158
-5 -26 -9 -57 -9 -68 0 -22 -18 -23 245 7 178 21 186 22 208 23 20 1 32 27 41
89 3 24 12 80 21 125 8 45 17 96 19 112 7 41 76 445 81 473 2 12 2 22 1 22 -2
0 -19 -15 -38 -32z"/>
<path d="M6235 6596 c-21 -21 -156 -144 -235 -213 -46 -41 -51 -31 50 -113 30
-25 66 -55 80 -68 48 -45 57 -45 64 -4 3 20 8 51 12 67 31 166 64 345 64 349
0 11 -15 4 -35 -18z"/>
<path d="M4105 6552 c-70 -66 -260 -240 -320 -293 -27 -24 -55 -49 -61 -54 -8
-7 -2 -45 20 -135 l31 -125 30 1 c17 1 55 5 85 8 30 4 71 9 90 11 19 2 53 6
75 9 22 3 65 8 95 11 137 16 203 25 209 30 6 7 -185 579 -195 582 -5 1 -32
-19 -59 -45z"/>
<path d="M1184 6367 c-12 -12 -161 -149 -249 -228 -27 -24 -59 -53 -71 -64
-11 -11 -63 -58 -114 -105 -52 -47 -101 -93 -110 -102 -10 -11 -23 -60 -33
-125 -10 -60 -20 -121 -23 -137 l-5 -28 78 6 c165 14 209 19 230 27 11 4 74
54 140 111 65 57 131 114 147 128 16 14 36 32 45 41 9 8 62 55 119 103 56 49
102 90 102 92 0 3 -70 -3 -115 -10 -11 -2 -55 -7 -96 -11 l-76 -7 18 108 c11
60 22 129 25 154 3 25 8 48 11 53 7 12 -11 7 -23 -6z"/>
<path d="M2209 6257 c-30 -28 -78 -72 -105 -96 -93 -82 -322 -292 -409 -374
l-50 -48 76 35 c174 78 318 195 452 371 61 79 113 165 100 165 -4 0 -33 -24
-64 -53z"/>
<path d="M8326 6192 c-11 -2 -25 -9 -31 -16 -7 -6 -54 -49 -105 -96 -52 -47
-123 -112 -159 -146 -37 -33 -142 -130 -236 -215 -93 -84 -172 -156 -175 -159
-3 -3 -100 -92 -216 -198 -190 -172 -213 -196 -222 -234 -22 -88 -33 -183 -33
-296 0 -96 5 -133 26 -207 25 -85 82 -225 93 -225 2 0 41 33 87 73 107 95 141
124 195 171 149 128 171 150 165 164 -7 19 -16 94 -19 169 -6 160 74 378 181
491 148 154 268 216 426 221 114 3 193 -25 250 -90 l43 -49 24 23 c14 12 54
47 90 77 36 30 70 60 76 65 6 6 37 33 69 60 31 28 67 58 79 69 11 10 38 33 60
52 l38 33 -21 30 c-63 89 -237 194 -370 225 -59 14 -266 19 -315 8z"/>
<path d="M8100 6137 c-131 -46 -221 -92 -335 -172 -143 -100 -305 -265 -388
-395 -44 -71 -128 -230 -121 -230 5 0 128 103 144 120 3 3 73 64 155 135 83
71 155 134 161 139 6 6 24 22 40 36 77 65 250 215 254 220 3 3 41 36 85 74
144 125 144 121 5 73z"/>
<path d="M6930 5924 c-52 -7 -124 -16 -160 -19 -36 -4 -72 -8 -80 -10 -8 -2
-42 -7 -75 -10 -33 -3 -69 -7 -80 -9 -20 -3 -26 -21 -40 -109 -3 -20 -13 -75
-20 -122 -28 -163 -43 -250 -49 -285 -5 -33 -20 -115 -33 -187 -7 -39 0 -41
31 -10 12 12 49 45 81 72 32 28 66 57 75 65 8 8 45 40 80 70 66 56 115 99 155
135 13 11 44 38 70 59 115 97 112 91 130 206 9 58 18 117 21 132 2 15 1 28 -3
31 -5 2 -51 -2 -103 -9z"/>
<path d="M9010 5880 c-18 -16 -76 -69 -129 -117 -53 -49 -116 -106 -140 -128
-132 -118 -133 -119 -122 -148 6 -15 15 -27 20 -27 6 0 103 45 216 100 114 55
208 100 210 100 2 0 20 9 39 21 l34 20 -27 67 c-15 37 -37 84 -47 105 l-20 38
-34 -31z"/>
<path d="M5497 5824 c-1 -2 -24 -5 -51 -9 -57 -6 -58 -7 -172 -112 -49 -45
-100 -91 -114 -103 -21 -18 -189 -172 -240 -220 -9 -8 -38 -35 -66 -59 -27
-25 -96 -89 -155 -142 -114 -106 -107 -92 -113 -219 -9 -178 93 -331 255 -380
21 -6 32 -2 55 19 16 14 79 69 139 120 61 52 115 99 120 105 6 6 39 36 75 66
36 30 84 73 108 95 l43 40 -26 6 c-14 4 -45 10 -69 13 -64 9 -138 34 -163 55
-61 51 -38 193 43 260 51 41 163 75 246 74 53 -1 77 -7 119 -29 50 -28 101
-83 114 -125 6 -18 9 -18 43 10 20 16 46 38 57 48 11 10 76 65 145 123 166
139 155 127 141 153 -29 52 -118 131 -182 160 -66 30 -163 50 -257 52 -50 1
-93 0 -95 -1z"/>
<path d="M5215 5762 c-257 -88 -455 -255 -548 -463 -49 -108 -46 -107 109 27
82 70 154 133 160 139 6 5 35 31 65 57 30 25 64 54 75 65 12 10 48 41 80 68
77 67 150 134 144 134 -3 0 -41 -12 -85 -27z"/>
<path d="M4309 5636 c-4 -4 -48 -10 -199 -27 -52 -5 -106 -12 -120 -14 -14 -2
-51 -7 -83 -11 -31 -3 -59 -10 -62 -14 -3 -4 -7 -25 -10 -46 -4 -22 -8 -46
-10 -54 -2 -8 -7 -37 -11 -65 -3 -27 -8 -52 -9 -55 -2 -3 -6 -26 -10 -50 -7
-50 -12 -83 -20 -120 -2 -13 -7 -40 -10 -60 -3 -20 -7 -45 -9 -55 -11 -62 -21
-118 -31 -185 -3 -25 -10 -60 -15 -77 -5 -18 -5 -35 -1 -38 5 -2 50 33 102 78
52 45 141 123 199 172 159 136 171 147 220 192 l47 43 31 177 c18 98 32 186
32 196 0 15 -19 24 -31 13z"/>
<path d="M6910 5537 c-63 -60 -243 -225 -280 -257 -14 -12 -69 -63 -124 -113
-54 -51 -104 -95 -111 -100 -16 -8 -31 -53 -40 -117 -4 -25 -9 -54 -11 -65
-10 -50 -24 -133 -30 -169 -3 -21 -8 -48 -10 -60 -2 -11 -7 -37 -10 -56 -3
-19 -17 -100 -30 -180 -14 -80 -27 -156 -29 -170 -26 -160 -57 -339 -61 -352
-9 -30 67 -21 103 11 15 14 57 51 93 81 35 30 71 62 80 70 9 8 41 36 71 62 59
51 65 56 164 143 37 33 71 62 75 65 7 5 18 56 35 160 3 19 12 71 20 115 14 79
17 100 30 180 3 22 10 63 15 90 5 28 12 66 15 85 3 19 10 61 16 92 16 89 73
430 84 501 4 20 3 37 -2 37 -4 0 -33 -24 -63 -53z"/>
<path d="M6025 5536 c-12 -12 -66 -61 -120 -111 -55 -49 -120 -109 -145 -133
-40 -38 -41 -42 -15 -29 17 8 59 28 95 45 254 117 242 110 236 140 -3 15 -8
44 -12 65 -8 46 -13 49 -39 23z"/>
<path d="M3229 5506 c-2 -2 -31 -7 -64 -11 -33 -3 -78 -8 -100 -11 -22 -3 -51
-7 -65 -8 -90 -10 -167 -19 -180 -22 -8 -1 -29 -3 -47 -3 -33 -1 -34 -3 -47
-86 -3 -16 -19 -111 -36 -210 -17 -99 -33 -193 -36 -210 -2 -16 -7 -46 -11
-65 -6 -33 -5 -34 13 -19 45 38 335 287 399 343 160 140 172 154 179 199 4 23
9 57 12 75 5 27 -3 41 -17 28z"/>
<path d="M1741 4883 c-514 -519 -544 -546 -558 -528 -8 11 -87 120 -175 243
l-161 223 -31 -28 c-17 -15 -38 -35 -47 -43 -27 -25 -88 -81 -214 -194 -165
-148 -162 -144 -171 -218 -4 -35 -8 -65 -9 -68 -2 -9 -17 -95 -21 -125 -2 -16
-6 -41 -9 -55 -3 -14 -7 -41 -10 -60 -3 -19 -7 -46 -10 -60 -3 -14 -7 -40 -10
-57 -3 -18 -7 -45 -10 -60 -16 -100 -58 -353 -61 -378 -3 -16 -10 -57 -15 -90
-6 -33 -13 -71 -15 -85 -2 -14 -7 -49 -12 -78 -5 -29 -6 -51 -1 -50 6 3 181
168 415 393 68 65 94 98 98 120 4 30 15 91 56 315 12 63 22 123 23 133 1 18 2
18 15 0 7 -10 45 -73 84 -141 l70 -124 32 30 c17 16 81 73 141 127 61 55 112
102 115 105 3 3 93 84 200 180 107 96 200 180 205 186 6 5 50 46 99 90 50 43
97 86 106 94 9 8 54 49 100 90 89 80 166 150 242 221 46 43 47 46 54 119 3 41
7 82 9 90 1 8 6 51 10 95 4 44 9 92 11 108 1 15 2 27 0 27 -2 0 -247 -246
-545 -547z"/>
<path d="M3148 5203 c-29 -26 -58 -52 -64 -57 -6 -6 -48 -45 -94 -86 -46 -41
-95 -86 -110 -100 -15 -14 -72 -65 -126 -115 -144 -132 -139 -125 -152 -207
-6 -40 -14 -84 -17 -98 -3 -14 -17 -92 -31 -175 -13 -82 -27 -163 -30 -180
-12 -67 -20 -169 -17 -216 2 -51 41 -209 50 -209 6 0 97 76 173 145 46 41 91
80 189 164 80 67 106 97 108 119 1 10 11 70 22 133 22 124 102 592 106 624 2
11 8 48 14 82 19 106 21 116 27 163 3 25 8 48 11 53 10 17 -10 4 -59 -40z"/>
<path d="M531 5133 c-7 -43 -21 -122 -32 -176 -10 -53 -21 -112 -24 -130 -20
-119 -48 -263 -51 -269 -3 -5 -2 -8 2 -8 7 0 91 66 109 86 6 6 37 33 70 60 63
52 107 89 164 140 l35 32 -128 171 c-71 94 -129 171 -130 171 -1 0 -8 -35 -15
-77z"/>
<path d="M4204 5142 c-28 -26 -91 -83 -140 -127 -48 -44 -102 -93 -119 -109
-34 -32 -150 -137 -213 -193 -23 -21 -44 -48 -46 -59 -3 -12 -7 -37 -10 -55
-11 -64 -35 -204 -40 -229 -3 -14 -8 -43 -11 -65 -4 -22 -9 -53 -12 -70 -21
-131 -163 -267 -305 -293 -93 -18 -188 2 -236 49 -18 17 -32 34 -32 38 0 3 -4
12 -9 20 -9 14 -68 -34 -217 -174 -12 -11 -62 -58 -113 -104 -50 -46 -91 -89
-91 -96 0 -20 89 -93 153 -125 32 -16 78 -32 102 -36 l44 -6 188 162 c103 89
199 172 213 184 14 12 106 91 205 176 98 85 186 162 195 170 9 8 43 38 75 66
403 346 383 328 390 372 3 20 10 60 15 87 5 28 12 70 16 95 10 69 12 82 19
125 10 62 14 88 20 115 3 14 8 45 11 69 3 25 7 48 10 53 14 22 -16 3 -62 -40z"/>
<path d="M5454 5018 c-14 -16 -120 -116 -248 -233 -55 -49 -114 -103 -131
-120 -18 -16 -52 -47 -75 -69 -23 -21 -40 -39 -38 -41 2 -2 76 -6 164 -9 162
-5 239 -20 275 -52 8 -8 19 -14 23 -14 7 0 141 113 156 131 3 3 57 50 120 105
63 54 121 104 127 110 7 7 25 22 39 33 23 18 25 23 13 37 -39 47 -167 108
-252 119 -110 14 -163 15 -173 3z"/>
<path d="M2139 4897 c-47 -45 -152 -145 -234 -222 -82 -77 -177 -166 -210
-197 -33 -31 -82 -78 -110 -103 -86 -81 -326 -307 -405 -381 -41 -39 -99 -94
-129 -121 l-54 -50 36 -59 c21 -32 47 -71 59 -87 l23 -27 255 254 c140 140
258 252 262 250 5 -3 6 -9 4 -13 -3 -4 -7 -25 -10 -46 -2 -22 -8 -67 -12 -100
l-7 -60 74 65 c41 36 79 70 85 75 6 6 39 35 74 65 160 138 296 256 312 271 10
8 20 33 23 55 2 21 16 136 30 254 14 118 27 225 29 238 2 12 0 22 -3 22 -3 0
-45 -38 -92 -83z"/>
<path d="M8583 4898 c-11 -13 -60 -60 -109 -104 -49 -45 -102 -94 -119 -109
-16 -15 -53 -48 -81 -74 -28 -25 -91 -83 -140 -128 -49 -45 -99 -90 -110 -100
-33 -28 -224 -204 -258 -238 l-31 -30 35 -5 c41 -7 122 -5 217 5 192 19 418
113 599 248 86 66 236 220 302 312 63 89 109 171 101 179 -9 10 -321 65 -365
66 -11 0 -29 -10 -41 -22z"/>
<path d="M5889 4827 c-26 -22 -75 -66 -335 -305 -97 -89 -102 -94 -106 -140
-8 -86 -60 -162 -138 -202 -20 -10 -72 -26 -115 -35 -74 -15 -84 -20 -134 -68
-30 -29 -60 -56 -66 -62 -7 -5 -63 -58 -126 -117 -64 -59 -126 -116 -139 -128
-13 -11 -21 -23 -17 -26 26 -26 290 -26 437 0 91 17 97 19 160 74 36 31 67 59
70 62 3 3 36 32 75 65 38 33 75 65 81 70 44 41 283 247 377 327 41 34 67 150
63 277 -2 53 -6 106 -9 118 -7 26 -44 113 -49 113 -2 0 -15 -10 -29 -23z"/>
<path d="M7688 4673 c-114 -103 -248 -225 -317 -291 l-56 -52 51 -49 c31 -28
95 -69 157 -101 94 -47 107 -51 124 -39 16 11 116 98 167 144 6 6 58 51 116
100 58 50 114 98 125 108 11 10 55 48 97 85 43 36 76 67 75 69 -2 1 -25 -5
-52 -13 -55 -17 -199 -23 -258 -11 -20 4 -66 30 -102 57 l-64 49 -63 -56z"/>
<path d="M4123 4503 c-11 -10 -57 -52 -103 -93 -46 -41 -91 -82 -100 -90 -16
-14 -180 -165 -240 -220 -28 -26 -195 -177 -214 -195 -7 -5 -41 -37 -76 -70
-36 -33 -110 -100 -164 -150 -55 -49 -124 -113 -155 -141 l-55 -51 29 -1 c17
-1 62 3 100 8 39 5 95 12 127 15 77 8 186 39 288 82 218 92 396 274 488 498
28 68 66 199 76 260 19 115 25 159 22 162 -1 2 -12 -5 -23 -14z"/>
<path d="M4665 4278 c-267 -230 -257 -219 -250 -247 18 -79 98 -190 169 -236
28 -18 25 -19 96 42 35 30 247 210 300 255 l43 36 -39 17 c-71 29 -121 91
-158 195 l-21 57 -140 -119z"/>
<path d="M2138 4372 c-1 -4 -70 -68 -153 -142 -82 -74 -156 -142 -165 -150
-17 -16 -172 -155 -200 -180 -20 -18 -27 -38 -36 -105 -3 -27 -8 -58 -10 -69
-2 -10 -6 -44 -10 -75 -3 -31 -8 -58 -9 -61 -2 -3 -6 -30 -10 -60 -3 -30 -8
-66 -10 -80 -2 -14 -7 -45 -10 -69 l-6 -43 47 38 c26 22 57 48 69 59 35 32 85
76 155 135 36 30 67 57 70 60 3 3 55 49 116 103 l111 96 12 88 c6 48 13 99 15
113 3 14 7 48 11 75 9 77 25 206 30 243 4 28 -7 45 -17 24z"/>
<path d="M5874 4247 c-6 -7 -53 -50 -105 -97 -51 -47 -114 -103 -139 -126 -25
-23 -61 -55 -80 -72 -121 -109 -135 -124 -110 -117 38 11 148 73 207 117 89
65 166 151 217 240 27 46 32 78 10 55z"/>
<path d="M6705 4201 c-22 -20 -96 -88 -165 -150 -135 -123 -171 -157 -155
-148 6 2 42 8 80 11 39 4 81 8 94 11 13 2 49 7 80 11 31 3 57 7 59 9 4 4 53
288 49 291 -1 2 -20 -14 -42 -35z"/>
<path d="M8290 3800 c-25 -4 -74 -10 -110 -14 -36 -4 -74 -9 -85 -11 -11 -3
-42 -7 -70 -10 -27 -3 -171 -21 -320 -40 -148 -20 -288 -38 -310 -41 -22 -2
-51 -7 -65 -9 -24 -4 -64 -9 -160 -20 -25 -3 -61 -7 -80 -10 -19 -2 -55 -7
-80 -10 -25 -3 -56 -8 -70 -10 -14 -2 -50 -7 -80 -10 -30 -3 -66 -8 -80 -10
-14 -3 -50 -7 -80 -10 -30 -3 -66 -8 -80 -10 -14 -2 -117 -16 -230 -30 -113
-14 -221 -28 -240 -30 -19 -3 -53 -8 -75 -11 -80 -10 -108 -13 -144 -18 -20
-3 -128 -17 -241 -31 -113 -15 -216 -28 -230 -30 -14 -2 -52 -7 -85 -11 -33
-3 -67 -8 -75 -9 -9 -2 -43 -6 -75 -10 -33 -4 -71 -8 -85 -10 -30 -5 -114 -16
-270 -35 -47 -6 -100 -13 -117 -16 -18 -2 -48 -6 -65 -8 -18 -3 -73 -10 -123
-16 -49 -6 -101 -13 -115 -15 -14 -2 -50 -6 -80 -10 -30 -4 -66 -8 -80 -10
-14 -2 -50 -7 -80 -10 -30 -4 -62 -9 -70 -10 -8 -2 -42 -6 -75 -9 -33 -4 -71
-8 -85 -11 -14 -2 -47 -7 -75 -10 -27 -3 -99 -12 -160 -20 -60 -8 -132 -17
-160 -20 -27 -3 -61 -8 -75 -10 -14 -3 -43 -7 -65 -10 -108 -12 -133 -15 -175
-21 -25 -4 -52 -8 -60 -9 -8 -2 -46 -6 -85 -11 -38 -4 -72 -8 -75 -9 -3 -1
-34 -5 -70 -9 -36 -4 -76 -9 -90 -11 -25 -4 -161 -21 -235 -31 -22 -2 -51 -7
-65 -9 -14 -2 -52 -7 -85 -10 -33 -4 -105 -13 -160 -20 -55 -8 -122 -17 -150
-20 -27 -3 -63 -8 -80 -10 -16 -3 -48 -7 -70 -10 -83 -10 -121 -14 -155 -19
-19 -3 -55 -8 -80 -11 -25 -3 -54 -7 -65 -9 -11 -2 -51 -7 -90 -11 -38 -4 -77
-8 -85 -10 -8 -1 -42 -6 -75 -9 -33 -4 -67 -9 -75 -11 -13 -3 -81 -12 -160
-20 -14 -1 -47 -5 -75 -9 -27 -4 -86 -11 -130 -17 -44 -6 -93 -12 -110 -14
-16 -3 -67 -9 -112 -15 -46 -6 -95 -13 -110 -15 -74 -10 -166 -21 -273 -35
-277 -34 -271 -33 -281 -53 -11 -20 -6 -20 141 -2 79 10 288 36 330 40 25 3
59 8 75 10 17 3 53 8 80 11 53 5 71 8 150 18 28 3 68 8 90 11 112 13 142 16
165 20 14 2 50 6 80 10 30 3 71 8 90 10 61 8 113 14 205 25 50 6 106 13 125
15 19 3 55 7 80 10 25 3 79 10 120 15 41 5 93 12 115 15 22 2 99 11 170 20 72
9 150 18 175 21 25 3 56 7 69 9 14 3 52 7 85 10 34 4 72 8 86 10 83 12 111 15
160 20 30 3 62 8 70 10 8 2 44 6 80 10 36 3 74 7 85 9 11 2 49 7 85 11 36 3
76 8 90 10 14 2 48 6 75 10 28 3 66 7 85 10 19 2 55 7 80 10 25 3 61 7 80 10
19 2 55 7 80 10 25 3 61 7 80 10 19 2 60 7 90 10 30 3 66 8 80 10 14 3 50 7
80 10 60 7 108 13 155 20 17 3 55 7 85 10 48 5 124 14 250 30 19 3 55 7 80 10
25 3 56 7 70 10 14 2 52 7 85 10 33 3 71 8 85 10 14 2 50 6 80 10 30 3 71 8
90 10 84 11 118 15 170 20 30 3 66 8 80 10 14 3 48 7 75 10 28 3 66 8 85 10
19 3 55 7 80 10 68 9 121 15 160 20 75 10 297 36 334 40 22 3 76 9 120 15 45
6 97 12 116 14 19 3 71 9 115 15 44 5 100 12 125 15 25 3 119 15 210 26 91 11
185 22 210 25 63 8 131 16 158 20 22 4 23 2 16 -53 -3 -31 -8 -60 -10 -63 -2
-4 -6 -27 -9 -50 -3 -24 -10 -69 -15 -99 -5 -30 -11 -68 -14 -85 -10 -70 -19
-121 -22 -140 -3 -11 -6 -33 -8 -50 -3 -16 -7 -43 -10 -60 -29 -174 -38 -237
-34 -240 2 -3 263 182 579 410 316 229 646 467 734 530 153 110 226 165 215
163 -3 0 -25 -4 -50 -8z"/>
<path d="M1938 3648 c-73 -67 -173 -158 -222 -202 -49 -45 -102 -94 -119 -109
l-31 -29 59 7 c33 4 68 9 77 11 9 1 48 6 85 9 37 4 75 8 83 10 8 2 44 7 80 10
36 4 66 8 68 10 2 1 14 81 27 176 14 96 27 186 29 202 2 15 3 27 1 27 -2 0
-64 -55 -137 -122z"/>
<path d="M614 3459 c-32 -28 -66 -59 -75 -68 -8 -9 -51 -48 -95 -87 -43 -40
-97 -88 -119 -108 l-40 -37 55 5 c30 3 87 9 125 12 39 4 79 7 90 9 11 1 30 3
41 4 21 1 25 12 51 151 2 13 11 55 19 93 8 39 13 72 11 74 -2 2 -30 -20 -63
-48z"/>
<path d="M6428 3125 c-3 -3 -26 -6 -180 -25 -54 -7 -98 -14 -98 -17 0 -3 -47
-292 -86 -525 -2 -16 -1 -28 3 -28 5 0 37 5 73 10 36 5 92 12 124 16 33 3 67
8 75 9 9 2 21 4 27 4 15 1 23 22 30 79 3 25 6 50 7 56 2 12 -2 12 -85 3 -57
-7 -58 -7 -58 17 0 35 10 40 98 50 24 2 45 6 48 8 5 5 24 105 24 125 0 12 -9
13 -42 8 -24 -4 -55 -9 -70 -11 -21 -3 -28 0 -28 12 0 31 19 50 52 52 83 7
102 16 109 52 19 93 19 106 0 107 -11 1 -21 0 -23 -2z"/>
<path d="M5797 3044 c-1 -2 -30 -6 -62 -9 -33 -3 -68 -8 -77 -11 -10 -3 -45
-58 -79 -125 -34 -66 -63 -118 -65 -116 -3 2 -15 51 -28 108 -27 118 -12 109
-147 95 l-66 -7 14 -67 c7 -37 20 -96 29 -132 31 -132 43 -186 48 -210 9 -54
24 -112 30 -117 3 -4 35 -2 72 3 l66 9 82 160 c45 88 113 218 149 288 37 70
67 129 67 131 0 4 -29 4 -33 0z"/>
<path d="M4929 2936 c-5 -5 -84 -15 -122 -15 -32 -1 -42 -20 -52 -101 -4 -29
-9 -62 -11 -74 -2 -12 -7 -37 -10 -56 -3 -19 -7 -42 -9 -50 -2 -8 -7 -35 -10
-60 -3 -25 -10 -70 -15 -100 -5 -30 -12 -70 -15 -88 l-6 -33 73 6 c98 9 118
18 119 52 0 16 2 35 4 43 2 8 6 33 10 55 3 22 8 52 11 67 3 15 7 42 9 60 3 18
7 44 9 58 3 14 8 43 11 65 3 23 8 52 10 65 19 90 17 127 -6 106z"/>
<path d="M4379 2866 c-2 -2 -29 -7 -59 -10 -30 -3 -77 -8 -105 -12 -27 -3 -59
-7 -70 -9 -11 -1 -32 -3 -47 -4 -34 -1 -44 -20 -53 -95 l-8 -59 47 7 c39 6 46
5 46 -10 0 -14 -24 -167 -45 -284 -3 -14 -8 -45 -11 -69 l-6 -44 49 7 c26 4
64 10 83 13 19 2 38 8 41 11 4 4 21 95 38 202 18 107 37 198 44 202 7 4 29 8
49 8 35 0 37 2 44 38 3 20 10 54 14 75 8 36 7 37 -19 37 -15 0 -30 -2 -32 -4z"/>
<path d="M3557 2763 c-2 -1 -16 -3 -32 -6 -28 -3 -38 -21 -178 -295 l-148
-292 53 6 c29 4 60 8 68 10 8 1 23 3 32 3 10 1 24 14 32 29 8 16 21 29 28 29
7 0 43 4 80 8 62 6 66 6 73 -15 6 -20 11 -21 73 -15 110 11 103 -3 71 148 -16
72 -41 191 -56 263 l-27 131 -34 -1 c-18 0 -34 -2 -35 -3z m-40 -305 c1 -7 4
-28 8 -45 6 -25 4 -33 -6 -34 -8 0 -24 -2 -36 -3 l-22 -3 25 49 c26 51 30 56
31 36z"/>
<path d="M2870 2678 c-41 -6 -76 -11 -78 -13 -3 -3 -9 -30 -18 -92 -3 -26 -8
-57 -10 -68 -3 -11 -7 -36 -10 -55 -3 -19 -16 -101 -30 -181 -13 -81 -24 -150
-24 -154 0 -6 82 0 135 10 11 2 25 4 32 4 12 1 21 33 39 151 2 19 9 58 14 85
5 28 12 70 15 95 3 25 12 83 20 130 8 47 15 88 15 93 0 8 4 8 -100 -5z"/>
<path d="M2377 2614 c-1 -1 -27 -5 -58 -8 -31 -4 -65 -8 -75 -10 -11 -2 -51
-7 -91 -11 -79 -8 -78 -7 -89 -99 -3 -22 -8 -44 -11 -49 -4 -6 14 -7 45 -3 59
8 58 9 43 -70 -5 -27 -12 -69 -16 -94 -4 -25 -11 -67 -16 -95 -5 -27 -12 -71
-15 -98 l-6 -47 38 5 c22 2 62 8 89 11 42 5 51 10 53 28 4 55 63 381 70 388 4
4 26 8 49 9 46 3 46 3 59 102 l6 48 -37 -3 c-19 -1 -37 -3 -38 -4z"/>
<path d="M1656 2523 c-2 -2 -22 -5 -45 -7 -23 -2 -43 -5 -46 -8 -4 -3 -17 -73
-39 -203 -11 -68 -56 -346 -56 -349 0 -4 32 -1 95 8 17 2 42 5 57 5 23 1 28 6
33 39 3 20 10 57 15 82 5 25 12 67 15 94 3 27 8 52 9 55 2 3 7 26 10 51 3 25
13 86 21 135 8 50 15 94 15 98 0 7 -77 7 -84 0z"/>
<path d="M1085 2452 c-22 -2 -45 -8 -51 -13 -6 -5 -17 -48 -24 -96 -7 -49 -15
-92 -17 -96 -3 -5 -21 18 -39 50 -19 32 -39 65 -44 73 -6 8 -13 23 -16 33 -6
16 -18 22 -39 17 -18 -3 -60 -8 -87 -9 -28 -1 -33 -10 -43 -76 -3 -23 -7 -50
-9 -62 -3 -11 -7 -38 -10 -59 -4 -22 -18 -105 -31 -185 -33 -196 -36 -182 28
-174 67 9 111 16 113 18 1 1 5 24 8 50 4 26 11 71 16 99 6 28 10 53 10 57 0 3
25 -38 56 -92 l56 -98 56 6 c32 4 64 9 73 11 12 3 22 44 43 177 38 235 36 223
51 305 l12 73 -36 -3 c-20 -2 -54 -4 -76 -6z"/>
<path d="M263 2348 c-42 -6 -73 -15 -74 -21 0 -7 -2 -23 -5 -37 -2 -14 -20
-122 -39 -240 -20 -118 -38 -227 -41 -242 -5 -27 -4 -27 33 -23 66 9 107 14
125 14 9 1 19 9 22 19 5 15 32 182 42 257 2 17 8 53 14 80 9 47 13 75 26 168
7 42 14 40 -103 25z"/>
</g>
</svg>
